<?xml version="1.0" encoding="UTF-8" standalone="no"?>
<!-- Created with Inkscape (http://www.inkscape.org/) -->

<svg
   xmlns:dc="http://purl.org/dc/elements/1.1/"
   xmlns:cc="http://creativecommons.org/ns#"
   xmlns:rdf="http://www.w3.org/1999/02/22-rdf-syntax-ns#"
   xmlns:svg="http://www.w3.org/2000/svg"
   xmlns="http://www.w3.org/2000/svg"
   xmlns:sodipodi="http://sodipodi.sourceforge.net/DTD/sodipodi-0.dtd"
   xmlns:inkscape="http://www.inkscape.org/namespaces/inkscape"
   width="813.60706"
   height="333.06992"
   id="svg3636"
   version="1.1"
   inkscape:version="0.91 r13725"
   sodipodi:docname="anr.svg">
  <defs
     id="defs3638">
    <clipPath
       clipPathUnits="userSpaceOnUse"
       id="clipPath3189">
      <path
         inkscape:connector-curvature="0"
         d="M 6.827,6.827 1239.898,6.827 1239.898,877.063 6.827,877.063 6.827,6.827 z"
         id="path3191" />
    </clipPath>
    <clipPath
       clipPathUnits="userSpaceOnUse"
       id="clipPath3169">
      <path
         inkscape:connector-curvature="0"
         d="M 6.827,6.827 1239.898,6.827 1239.898,877.063 6.827,877.063 6.827,6.827 z"
         id="path3171" />
    </clipPath>
    <clipPath
       clipPathUnits="userSpaceOnUse"
       id="clipPath3153">
      <path
         inkscape:connector-curvature="0"
         d="M 6.827,6.827 1239.898,6.827 1239.898,877.063 6.827,877.063 6.827,6.827 z"
         id="path3155" />
    </clipPath>
    <clipPath
       clipPathUnits="userSpaceOnUse"
       id="clipPath3129">
      <path
         inkscape:connector-curvature="0"
         d="M 6.827,6.827 1239.898,6.827 1239.898,877.063 6.827,877.063 6.827,6.827 z"
         id="path3131" />
    </clipPath>
    <clipPath
       clipPathUnits="userSpaceOnUse"
       id="clipPath3101">
      <path
         inkscape:connector-curvature="0"
         d="M 6.827,6.827 1239.898,6.827 1239.898,877.063 6.827,877.063 6.827,6.827 z"
         id="path3103" />
    </clipPath>
    <clipPath
       clipPathUnits="userSpaceOnUse"
       id="clipPath3071">
      <path
         inkscape:connector-curvature="0"
         d="M 6.827,6.827 1239.898,6.827 1239.898,877.063 6.827,877.063 6.827,6.827 z"
         id="path3073" />
    </clipPath>
    <clipPath
       clipPathUnits="userSpaceOnUse"
       id="clipPath3051">
      <path
         inkscape:connector-curvature="0"
         d="M 6.827,6.827 1239.898,6.827 1239.898,877.063 6.827,877.063 6.827,6.827 z"
         id="path3053" />
    </clipPath>
    <clipPath
       clipPathUnits="userSpaceOnUse"
       id="clipPath3027">
      <path
         inkscape:connector-curvature="0"
         d="M 6.827,6.827 1239.898,6.827 1239.898,877.063 6.827,877.063 6.827,6.827 z"
         id="path3029" />
    </clipPath>
  </defs>
  <sodipodi:namedview
     id="base"
     pagecolor="#ffffff"
     bordercolor="#666666"
     borderopacity="1.0"
     inkscape:pageopacity="0.0"
     inkscape:pageshadow="2"
     inkscape:zoom="0.70683594"
     inkscape:cx="-7.5336492"
     inkscape:cy="43.484779"
     inkscape:document-units="px"
     inkscape:current-layer="layer1"
     showgrid="false"
     fit-margin-top="0"
     fit-margin-left="0"
     fit-margin-right="0"
     fit-margin-bottom="0"
     inkscape:window-width="1920"
     inkscape:window-height="1025"
     inkscape:window-x="0"
     inkscape:window-y="-3"
     inkscape:window-maximized="1" />
  <metadata
     id="metadata3641">
    <rdf:RDF>
      <cc:Work
         rdf:about="">
        <dc:format>image/svg+xml</dc:format>
        <dc:type
           rdf:resource="http://purl.org/dc/dcmitype/StillImage" />
        <dc:title />
      </cc:Work>
    </rdf:RDF>
  </metadata>
  <g
     inkscape:label="Calque 1"
     inkscape:groupmode="layer"
     id="layer1"
     transform="translate(-1.8720235,-258.7877)">
    <g
       id="g3835"
       transform="matrix(1.7735606,0,0,1.7735606,206.60056,-330.89345)"
       inkscape:export-xdpi="90"
       inkscape:export-ydpi="90">
      <g
         id="g3023"
         transform="matrix(1.25,0,0,-1.25,-162.1793,718.47916)">
        <g
           clip-path="url(#clipPath3027)"
           id="g3025">
          <g
             transform="translate(137.2547,210.1912)"
             id="g3031">
            <path
               id="path3033"
               style="fill:#c8cbe8;fill-opacity:1;fill-rule:nonzero;stroke:none"
               d="M 0,0 1.634,0.205 C 3.524,0.409 3.728,0.971 3.218,2.554 2.86,3.78 1.379,7.764 -0.051,11.441 l -10.369,0 c -0.51,-1.328 -1.838,-5.312 -2.553,-7.457 -0.971,-2.962 -0.511,-3.626 1.787,-3.831 L -9.654,0 l 0,-1.175 -10.93,0 0,1.175 c 3.32,0.358 3.729,0.664 5.516,5.21 l 10.522,27.121 1.175,0.46 3.626,-9.704 C 2.656,16.6 4.903,10.113 6.895,4.904 8.529,0.613 9.194,0.255 12.36,0 l 0,-1.175 L 0,-1.175 0,0 Z m -9.756,13.382 9.041,0 -4.495,12.565 -0.102,0 -4.444,-12.565 z"
               inkscape:connector-curvature="0" />
          </g>
          <g
             transform="translate(183.3129,208.624)"
             id="g3035">
            <path
               id="path3037"
               style="fill:#96a0d3;fill-opacity:1;fill-rule:nonzero;stroke:none"
               d="m 0,0 -1.355,0 -22.61,27.456 -0.104,0 0,-13.286 c 0,-5.47 0.208,-8.283 0.417,-9.898 0.26,-1.823 1.667,-2.553 5.105,-2.709 l 0,-1.198 -12.503,0 0,1.198 c 2.865,0.104 4.22,0.886 4.48,2.709 0.208,1.615 0.417,4.428 0.417,9.898 l 0,11.306 c 0,3.751 -0.052,4.584 -0.99,5.783 -0.99,1.25 -2.396,1.615 -4.585,1.771 l 0,1.198 7.607,0 21.933,-26.257 0.104,0 0,12.451 c 0,5.471 -0.208,8.284 -0.417,9.899 -0.26,1.823 -1.667,2.553 -5.105,2.709 l 0,1.198 12.503,0 0,-1.198 C 2.032,32.926 0.677,32.144 0.417,30.321 0.208,28.706 0,25.893 0,20.422 L 0,0 Z"
               inkscape:connector-curvature="0" />
          </g>
          <g
             transform="translate(197.8288,218.875)"
             id="g3039">
            <path
               id="path3041"
               style="fill:#1d50a0;fill-opacity:1;fill-rule:nonzero;stroke:none"
               d="m 0,0 c 0,-7.461 0.548,-7.94 6.16,-8.35 l 0,-1.575 -18.207,0 0,1.575 c 5.75,0.41 6.298,0.889 6.298,8.35 l 0,24.641 c 0,7.461 -0.548,7.94 -6.023,8.351 l 0,1.574 17.385,0 c 4.38,0 8.281,-0.616 10.814,-2.327 2.739,-1.711 4.518,-4.792 4.518,-8.761 0,-5.681 -3.491,-9.72 -9.036,-11.979 1.233,-2.054 4.039,-6.776 6.092,-9.788 2.465,-3.627 3.902,-5.475 5.75,-7.529 1.437,-1.711 2.67,-2.806 5.133,-3.422 l -0.136,-1.301 -0.959,0 C 19.918,-10.335 17.522,-7.94 14.921,-4.175 12.8,-1.095 9.925,3.97 8.009,7.187 6.913,8.967 5.818,9.651 3.696,9.651 L 0,9.651 0,0 Z m 0,11.636 3.97,0 c 2.807,0 4.997,0.343 6.845,1.849 2.943,2.326 3.969,5.681 3.969,9.034 0,7.187 -5.201,10.062 -10.335,10.062 -2.327,0 -3.285,-0.137 -3.833,-0.342 C 0.205,32.102 0,31.76 0,30.391 L 0,11.636 Z"
               inkscape:connector-curvature="0" />
          </g>
        </g>
      </g>
      <g
         transform="matrix(1.25,0,0,-1.25,-15.617298,410.37516)"
         id="g3043">
        <path
           id="path3045"
           style="fill:#1d50a0;fill-opacity:1;fill-rule:nonzero;stroke:none"
           d="m 0,0 -0.332,-0.845 -0.39,0 1.39,3.514 1.391,-3.514 -0.39,0 L 1.336,0 0,0 Z m 0.668,1.748 -0.517,-1.363 1.035,0 -0.518,1.363 z"
           inkscape:connector-curvature="0" />
      </g>
      <g
         id="g3047"
         transform="matrix(1.25,0,0,-1.25,-162.1793,718.47916)">
        <g
           clip-path="url(#clipPath3051)"
           id="g3049">
          <g
             transform="translate(122.0965,247.3371)"
             id="g3055">
            <path
               id="path3057"
               style="fill:#1d50a0;fill-opacity:1;fill-rule:nonzero;stroke:none"
               d="m 0,0 0,-0.134 c 0,-0.925 -0.564,-1.636 -1.379,-1.636 -0.815,0 -1.471,0.813 -1.471,1.748 0,0.97 0.672,1.766 1.51,1.766 0.452,0 0.9,-0.237 1.186,-0.653 L -0.409,0.809 c -0.209,0.331 -0.56,0.55 -0.916,0.55 -0.652,0 -1.162,-0.612 -1.162,-1.368 0,-0.706 0.502,-1.377 1.131,-1.377 0.452,0 0.939,0.452 0.954,1.002 l -0.753,0 0,0.384 L 0,0 Z"
               inkscape:connector-curvature="0" />
          </g>
        </g>
      </g>
      <g
         transform="matrix(1.25,0,0,-1.25,-9.0904281,407.21728)"
         id="g3059">
        <path
           id="path3061"
           style="fill:#1d50a0;fill-opacity:1;fill-rule:nonzero;stroke:none"
           d="m 0,0 1.564,0 0,-0.385 -1.201,0 0,-0.943 1.166,0 0,-0.384 -1.166,0 0,-1.275 1.201,0 0,-0.384 L 0,-3.371 0,0 Z"
           inkscape:connector-curvature="0" />
      </g>
      <g
         transform="matrix(1.25,0,0,-1.25,-6.4446781,407.01629)"
         id="g3063">
        <path
           id="path3065"
           style="fill:#1d50a0;fill-opacity:1;fill-rule:nonzero;stroke:none"
           d="m 0,0 2.186,-2.651 0,2.49 0.363,0 0,-3.51 -2.186,2.652 0,-2.513 L 0,-3.532 0,0 Z"
           inkscape:connector-curvature="0" />
      </g>
      <g
         id="g3067"
         transform="matrix(1.25,0,0,-1.25,-162.1793,718.47916)">
        <g
           clip-path="url(#clipPath3071)"
           id="g3069">
          <g
             transform="translate(129.8519,248.3656)"
             id="g3075">
            <path
               id="path3077"
               style="fill:#1d50a0;fill-opacity:1;fill-rule:nonzero;stroke:none"
               d="m 0,0 c -0.209,0.214 -0.494,0.331 -0.769,0.331 -0.652,0 -1.15,-0.631 -1.15,-1.377 0,-0.738 0.494,-1.368 1.143,-1.368 0.285,0 0.56,0.125 0.776,0.348 l 0,-0.496 c -0.224,-0.152 -0.51,-0.237 -0.765,-0.237 -0.83,0 -1.518,0.765 -1.518,1.739 0,0.997 0.692,1.775 1.549,1.775 0.255,0 0.514,-0.071 0.734,-0.228 L 0,0 Z"
               inkscape:connector-curvature="0" />
          </g>
        </g>
      </g>
      <g
         transform="matrix(1.25,0,0,-1.25,0.77269192,407.21728)"
         id="g3079">
        <path
           id="path3081"
           style="fill:#1d50a0;fill-opacity:1;fill-rule:nonzero;stroke:none"
           d="m 0,0 1.564,0 0,-0.385 -1.201,0 0,-0.943 1.166,0 0,-0.384 -1.166,0 0,-1.275 1.201,0 0,-0.384 L 0,-3.371 0,0 Z"
           inkscape:connector-curvature="0" />
      </g>
      <g
         transform="matrix(1.25,0,0,-1.25,4.8326919,407.01629)"
         id="g3083">
        <path
           id="path3085"
           style="fill:#1d50a0;fill-opacity:1;fill-rule:nonzero;stroke:none"
           d="m 0,0 2.186,-2.651 0,2.49 0.363,0 0,-3.51 -2.186,2.652 0,-2.513 L 0,-3.532 0,0 Z"
           inkscape:connector-curvature="0" />
      </g>
      <g
         transform="matrix(1.25,0,0,-1.25,9.2790719,410.37516)"
         id="g3087">
        <path
           id="path3089"
           style="fill:#1d50a0;fill-opacity:1;fill-rule:nonzero;stroke:none"
           d="m 0,0 -0.332,-0.845 -0.39,0 1.39,3.514 1.391,-3.514 -0.391,0 L 1.336,0 0,0 Z M 0.668,1.748 0.15,0.385 l 1.036,0 -0.518,1.363 z"
           inkscape:connector-curvature="0" />
      </g>
      <g
         transform="matrix(1.25,0,0,-1.25,12.847572,411.43141)"
         id="g3091">
        <path
           id="path3093"
           style="fill:#1d50a0;fill-opacity:1;fill-rule:nonzero;stroke:none"
           d="m 0,0 -0.363,0 0,2.987 -0.691,0 0,0.384 1.745,0 0,-0.384 L 0,2.987 0,0 Z"
           inkscape:connector-curvature="0" />
      </g>
      <path
         id="path3095"
         style="fill:#1d50a0;fill-opacity:1;fill-rule:nonzero;stroke:none"
         d="m 14.150697,411.43166 0.45375,0 0,-4.21375 -0.45375,0 0,4.21375 z"
         inkscape:connector-curvature="0" />
      <g
         id="g3097"
         transform="matrix(1.25,0,0,-1.25,-162.1793,718.47916)">
        <g
           clip-path="url(#clipPath3101)"
           id="g3099">
          <g
             transform="translate(144.8955,247.3239)"
             id="g3105">
            <path
               id="path3107"
               style="fill:#1d50a0;fill-opacity:1;fill-rule:nonzero;stroke:none"
               d="m 0,0 c 0,-1.002 -0.684,-1.757 -1.526,-1.757 -0.842,0 -1.525,0.755 -1.525,1.757 0,0.966 0.691,1.757 1.525,1.757 C -0.691,1.757 0,0.966 0,0 m -0.363,0 c 0,0.742 -0.479,1.364 -1.163,1.364 -0.683,0 -1.162,-0.622 -1.162,-1.364 0,-0.769 0.533,-1.364 1.162,-1.364 0.63,0 1.163,0.595 1.163,1.364"
               inkscape:connector-curvature="0" />
          </g>
        </g>
      </g>
      <g
         transform="matrix(1.25,0,0,-1.25,19.277702,407.01629)"
         id="g3109">
        <path
           id="path3111"
           style="fill:#1d50a0;fill-opacity:1;fill-rule:nonzero;stroke:none"
           d="m 0,0 2.186,-2.651 0,2.49 0.363,0 0,-3.51 -2.186,2.652 0,-2.513 L 0,-3.532 0,0 Z"
           inkscape:connector-curvature="0" />
      </g>
      <g
         transform="matrix(1.25,0,0,-1.25,23.724192,410.37516)"
         id="g3113">
        <path
           id="path3115"
           style="fill:#1d50a0;fill-opacity:1;fill-rule:nonzero;stroke:none"
           d="m 0,0 -0.332,-0.845 -0.39,0 1.39,3.514 1.391,-3.514 -0.391,0 L 1.336,0 0,0 Z m 0.668,1.748 -0.517,-1.363 1.035,0 -0.518,1.363 z"
           inkscape:connector-curvature="0" />
      </g>
      <g
         transform="matrix(1.25,0,0,-1.25,27.151572,410.95054)"
         id="g3117">
        <path
           id="path3119"
           style="fill:#1d50a0;fill-opacity:1;fill-rule:nonzero;stroke:none"
           d="m 0,0 0.885,0 0,-0.385 -1.248,0 0,3.372 L 0,2.987 0,0 Z"
           inkscape:connector-curvature="0" />
      </g>
      <g
         transform="matrix(1.25,0,0,-1.25,28.730442,407.21728)"
         id="g3121">
        <path
           id="path3123"
           style="fill:#1d50a0;fill-opacity:1;fill-rule:nonzero;stroke:none"
           d="m 0,0 1.564,0 0,-0.385 -1.201,0 0,-0.943 1.167,0 0,-0.384 -1.167,0 0,-1.275 1.201,0 0,-0.384 L 0,-3.371 0,0 Z"
           inkscape:connector-curvature="0" />
      </g>
      <g
         id="g3125"
         transform="matrix(1.25,0,0,-1.25,-162.1793,718.47916)">
        <g
           clip-path="url(#clipPath3129)"
           id="g3127">
          <g
             transform="translate(156.0415,249.0095)"
             id="g3133">
            <path
               id="path3135"
               style="fill:#1d50a0;fill-opacity:1;fill-rule:nonzero;stroke:none"
               d="m 0,0 0.603,0 c 0.892,0 1.633,-0.545 1.633,-1.668 0,-1.149 -0.726,-1.703 -1.645,-1.703 L 0,-3.371 0,0 Z m 0.363,-2.987 0.128,0 c 0.741,0 1.382,0.322 1.382,1.301 0,0.984 -0.641,1.301 -1.382,1.301 l -0.128,0 0,-2.602 z"
               inkscape:connector-curvature="0" />
          </g>
        </g>
      </g>
      <g
         transform="matrix(1.25,0,0,-1.25,36.218072,407.21728)"
         id="g3137">
        <path
           id="path3139"
           style="fill:#1d50a0;fill-opacity:1;fill-rule:nonzero;stroke:none"
           d="m 0,0 1.564,0 0,-0.385 -1.201,0 0,-0.943 1.166,0 0,-0.384 -1.166,0 0,-1.275 1.201,0 0,-0.384 L 0,-3.371 0,0 Z"
           inkscape:connector-curvature="0" />
      </g>
      <g
         transform="matrix(1.25,0,0,-1.25,40.388942,410.95054)"
         id="g3141">
        <path
           id="path3143"
           style="fill:#1d50a0;fill-opacity:1;fill-rule:nonzero;stroke:none"
           d="m 0,0 0.884,0 0,-0.385 -1.247,0 0,3.372 L 0,2.987 0,0 Z"
           inkscape:connector-curvature="0" />
      </g>
      <g
         transform="matrix(1.25,0,0,-1.25,42.793322,410.37516)"
         id="g3145">
        <path
           id="path3147"
           style="fill:#1d50a0;fill-opacity:1;fill-rule:nonzero;stroke:none"
           d="m 0,0 -0.332,-0.845 -0.39,0 1.39,3.514 1.39,-3.514 -0.39,0 L 1.337,0 0,0 Z m 0.668,1.748 -0.517,-1.363 1.035,0 -0.518,1.363 z"
           inkscape:connector-curvature="0" />
      </g>
      <g
         id="g3149"
         transform="matrix(1.25,0,0,-1.25,-162.1793,718.47916)">
        <g
           clip-path="url(#clipPath3153)"
           id="g3151">
          <g
             transform="translate(169.362,245.6382)"
             id="g3157">
            <path
               id="path3159"
               style="fill:#1d50a0;fill-opacity:1;fill-rule:nonzero;stroke:none"
               d="m 0,0 -0.44,0 -0.858,1.426 -0.15,0 0,-1.426 -0.364,0 0,3.371 0.441,0 c 0.259,0 0.537,-0.004 0.768,-0.156 C -0.359,3.049 -0.22,2.732 -0.22,2.41 -0.22,1.927 -0.498,1.525 -0.919,1.466 L 0,0 Z m -1.448,1.775 0.116,0 c 0.37,0 0.772,0.081 0.772,0.617 0,0.528 -0.433,0.603 -0.792,0.603 l -0.096,0 0,-1.22 z"
               inkscape:connector-curvature="0" />
          </g>
        </g>
      </g>
      <g
         transform="matrix(1.25,0,0,-1.25,49.976692,407.21728)"
         id="g3161">
        <path
           id="path3163"
           style="fill:#1d50a0;fill-opacity:1;fill-rule:nonzero;stroke:none"
           d="m 0,0 1.564,0 0,-0.385 -1.201,0 0,-0.943 1.166,0 0,-0.384 -1.166,0 0,-1.275 1.201,0 0,-0.384 L 0,-3.371 0,0 Z"
           inkscape:connector-curvature="0" />
      </g>
      <g
         id="g3165"
         transform="matrix(1.25,0,0,-1.25,-162.1793,718.47916)">
        <g
           clip-path="url(#clipPath3169)"
           id="g3167">
          <g
             transform="translate(173.9349,248.3656)"
             id="g3173">
            <path
               id="path3175"
               style="fill:#1d50a0;fill-opacity:1;fill-rule:nonzero;stroke:none"
               d="m 0,0 c -0.208,0.214 -0.494,0.331 -0.768,0.331 -0.653,0 -1.151,-0.631 -1.151,-1.377 0,-0.738 0.494,-1.368 1.143,-1.368 0.286,0 0.56,0.125 0.776,0.348 l 0,-0.496 c -0.224,-0.152 -0.509,-0.237 -0.765,-0.237 -0.83,0 -1.517,0.765 -1.517,1.739 0,0.997 0.691,1.775 1.548,1.775 0.255,0 0.514,-0.071 0.734,-0.228 L 0,0 Z"
               inkscape:connector-curvature="0" />
          </g>
        </g>
      </g>
      <g
         transform="matrix(1.25,0,0,-1.25,58.025322,408.91666)"
         id="g3177">
        <path
           id="path3179"
           style="fill:#1d50a0;fill-opacity:1;fill-rule:nonzero;stroke:none"
           d="m 0,0 0,1.359 0.363,0 0,-3.371 -0.363,0 0,1.619 -1.387,0 0,-1.619 -0.363,0 0,3.371 0.363,0 L -1.387,0 0,0 Z"
           inkscape:connector-curvature="0" />
      </g>
      <g
         transform="matrix(1.25,0,0,-1.25,59.232072,407.21728)"
         id="g3181">
        <path
           id="path3183"
           style="fill:#1d50a0;fill-opacity:1;fill-rule:nonzero;stroke:none"
           d="m 0,0 1.564,0 0,-0.385 -1.201,0 0,-0.943 1.166,0 0,-0.384 -1.166,0 0,-1.275 1.201,0 0,-0.384 L 0,-3.371 0,0 Z"
           inkscape:connector-curvature="0" />
      </g>
      <g
         id="g3185"
         transform="matrix(1.25,0,0,-1.25,-162.1793,718.47916)">
        <g
           clip-path="url(#clipPath3189)"
           id="g3187">
          <g
             transform="translate(181.0297,245.6382)"
             id="g3193">
            <path
               id="path3195"
               style="fill:#1d50a0;fill-opacity:1;fill-rule:nonzero;stroke:none"
               d="m 0,0 -0.44,0 -0.858,1.426 -0.15,0 0,-1.426 -0.363,0 0,3.371 0.44,0 c 0.259,0 0.537,-0.004 0.768,-0.156 C -0.359,3.049 -0.22,2.732 -0.22,2.41 -0.22,1.927 -0.498,1.525 -0.919,1.466 L 0,0 Z m -1.448,1.775 0.116,0 c 0.37,0 0.772,0.081 0.772,0.617 0,0.528 -0.433,0.603 -0.792,0.603 l -0.096,0 0,-1.22 z"
               inkscape:connector-curvature="0" />
          </g>
          <g
             transform="translate(183.5129,248.3656)"
             id="g3197">
            <path
               id="path3199"
               style="fill:#1d50a0;fill-opacity:1;fill-rule:nonzero;stroke:none"
               d="m 0,0 c -0.208,0.214 -0.494,0.331 -0.768,0.331 -0.653,0 -1.151,-0.631 -1.151,-1.377 0,-0.738 0.494,-1.368 1.143,-1.368 0.286,0 0.56,0.125 0.776,0.348 l 0,-0.496 c -0.224,-0.152 -0.51,-0.237 -0.765,-0.237 -0.83,0 -1.517,0.765 -1.517,1.739 0,0.997 0.691,1.775 1.548,1.775 0.255,0 0.514,-0.071 0.734,-0.228 L 0,0 Z"
               inkscape:connector-curvature="0" />
          </g>
        </g>
      </g>
      <g
         transform="matrix(1.25,0,0,-1.25,69.997822,408.91666)"
         id="g3201">
        <path
           id="path3203"
           style="fill:#1d50a0;fill-opacity:1;fill-rule:nonzero;stroke:none"
           d="m 0,0 0,1.359 0.363,0 0,-3.371 -0.363,0 0,1.619 -1.387,0 0,-1.619 -0.363,0 0,3.371 0.363,0 L -1.387,0 0,0 Z"
           inkscape:connector-curvature="0" />
      </g>
      <g
         transform="matrix(1.25,0,0,-1.25,71.204572,407.21728)"
         id="g3205">
        <path
           id="path3207"
           style="fill:#1d50a0;fill-opacity:1;fill-rule:nonzero;stroke:none"
           d="m 0,0 1.564,0 0,-0.385 -1.201,0 0,-0.943 1.167,0 0,-0.384 -1.167,0 0,-1.275 1.201,0 0,-0.384 L 0,-3.371 0,0 Z"
           inkscape:connector-curvature="0" />
      </g>
    </g>
  </g>
</svg>
