<?xml version="1.0" encoding="UTF-8" standalone="no"?>
<!-- Created with Inkscape (http://www.inkscape.org/) -->

<svg
   xmlns:dc="http://purl.org/dc/elements/1.1/"
   xmlns:cc="http://creativecommons.org/ns#"
   xmlns:rdf="http://www.w3.org/1999/02/22-rdf-syntax-ns#"
   xmlns:svg="http://www.w3.org/2000/svg"
   xmlns="http://www.w3.org/2000/svg"
   xmlns:sodipodi="http://sodipodi.sourceforge.net/DTD/sodipodi-0.dtd"
   xmlns:inkscape="http://www.inkscape.org/namespaces/inkscape"
   version="1.1"
   width="105.2225"
   height="106.29938"
   id="svg16200"
   inkscape:version="0.91 r13725"
   sodipodi:docname="tsp.svg">
  <sodipodi:namedview
     pagecolor="#ffffff"
     bordercolor="#666666"
     borderopacity="1"
     objecttolerance="10"
     gridtolerance="10"
     guidetolerance="10"
     inkscape:pageopacity="0"
     inkscape:pageshadow="2"
     inkscape:window-width="1920"
     inkscape:window-height="1025"
     id="namedview40"
     showgrid="false"
     inkscape:zoom="2.2201447"
     inkscape:cx="52.611252"
     inkscape:cy="53.149689"
     inkscape:window-x="0"
     inkscape:window-y="-3"
     inkscape:window-maximized="1"
     inkscape:current-layer="svg16200" />
  <defs
     id="defs16202">
    <clipPath
       id="clipPath15971">
      <path
         d="m 307.843,41.4196 84.178,0 0,108.768 -84.178,0 0,-108.768 z"
         id="path15973" />
    </clipPath>
    <clipPath
       id="clipPath15979">
      <path
         d="m 307.843,126.7101 0,-85.0395 85.0394,0 0,85.0395"
         id="path15981" />
    </clipPath>
  </defs>
  <metadata
     id="metadata16205">
    <rdf:RDF>
      <cc:Work
         rdf:about="">
        <dc:format>image/svg+xml</dc:format>
        <dc:type
           rdf:resource="http://purl.org/dc/dcmitype/StillImage" />
        <dc:title />
      </cc:Work>
    </rdf:RDF>
  </metadata>
  <g
     transform="matrix(0.9407393,0,0,0.9407393,-531.07707,-339.68942)"
     id="layer1"
     inkscape:export-xdpi="90"
     inkscape:export-ydpi="90">
    <g
       transform="matrix(1.25,0,0,-1.25,179.72786,526.17155)"
       id="g15967">
      <g
         clip-path="url(#clipPath15971)"
         id="g15969">
        <g
           id="g15975">
          <g
             clip-path="url(#clipPath15979)"
             id="g15977">
            <path
               d="m 307.843,41.6706 85.0395,0 0,85.0395 -85.0395,0 0,-85.0395 z"
               id="path15983"
               style="fill:#ffffff;fill-opacity:1;fill-rule:nonzero;stroke:none"
               inkscape:connector-curvature="0" />
            <path
               d="m 310.6247,69.2337 79.4762,0 0,54.6947 -79.4762,0 0,-54.6947 z"
               id="path15985"
               style="fill:#231f20;fill-opacity:1;fill-rule:nonzero;stroke:none"
               inkscape:connector-curvature="0" />
            <path
               d="m 390.0316,44.5371 -0.0321,21.0108 -3.5629,0 c -0.3704,-0.4944 -0.1196,-2.7225 -1.2479,-3.1476 -3.8182,0.8562 -0.3387,1.29 -1.6488,3.1476 -0.1638,-0.009 -1.7214,0.0012 -1.8858,0 0.1779,-0.024 0.843,-0.7707 -0.1533,-1.6266 -1.3374,-8.8068 1.1205,-12.3963 -0.1224,-19.3785 l 8.6532,-0.0057"
               id="path15987"
               style="fill:#164079;fill-opacity:1;fill-rule:nonzero;stroke:none"
               inkscape:connector-curvature="0" />
            <path
               d="m 333.1956,59.0418 c 1.43,0.6738 1.4402,2.1672 1.5068,3.1464 -0.4331,0.4857 -2.1282,0.5163 -2.8076,0.3921 -0.941,-0.7875 -0.1236,-2.1939 -0.6855,-3.1083 0.3703,-0.7911 1.3649,-0.2373 1.9863,-0.4302"
               id="path15989"
               style="fill:#164079;fill-opacity:1;fill-rule:nonzero;stroke:none"
               inkscape:connector-curvature="0" />
            <path
               d="m 341.3635,48.6174 0.4232,-0.1215 c 0.3886,-0.0783 0.9129,-0.0954 1.3195,0.0759 -0.1065,0.2814 -0.2502,0.5484 -0.4233,0.7641 -0.4635,-0.2214 -0.9054,-0.456 -1.3194,-0.7185"
               id="path15991"
               style="fill:#164079;fill-opacity:1;fill-rule:nonzero;stroke:none"
               inkscape:connector-curvature="0" />
            <path
               d="m 341.4751,58.1229 c -0.8626,2.2899 2.253,3.2232 3.4535,4.6209 l 1.6123,-0.8988 c -0.1752,-1.5639 -3.0318,-1.8528 -2.8579,-3.5478 0.2986,-0.2523 0.5589,-0.6783 0.9469,-0.7602 0.1353,-0.4215 -0.2175,-0.678 -0.4731,-0.9339 -1.2531,-0.5055 -1.8984,0.7218 -2.6817,1.5198 z m 1.6311,-9.5511 c 0.3387,-0.8463 0.3792,-1.8915 -0.0267,-2.5524 l -4.1709,-0.1458 0,0.5343 c 0.7326,0.9633 1.5423,1.6446 2.4549,2.2095 l -0.8373,0.2358 c -1.1916,0.8145 1.6109,1.9821 2.0457,2.301 l 1.1268,-1.8042 c -0.0336,-0.4065 -0.2763,-0.6438 -0.5925,-0.7782 z m -8.2958,-2.0043 c -0.8973,1.5504 0.1483,4.1343 0.3967,5.6139 0.2116,0.2106 0.4295,0.4971 0.7937,0.384 0.2499,-0.8103 -0.9396,-1.3383 -0.1439,-2.0385 0.823,0.2436 1.9043,-0.4968 2.73,0.1371 -0.4316,0.7044 -1.3307,0.3495 -1.9407,0.6348 l 0,0.3849 1.8394,0.1113 c 0.2862,-0.3906 1.5876,-0.759 1.3002,-1.5024 -1.2249,-1.7292 -3.3195,-2.7375 -4.9754,-3.7251 z m -1.4484,8.7441 c 0.1902,0.318 0.5663,0.1302 0.8385,0.1809 0.0987,-0.7764 1.309,0.1839 0.8426,-0.8298 l -0.1365,0 c -0.5127,-0.2676 -1.3544,0 -1.5446,0.6489 z m 2.3859,-0.4563 c 0.6238,0.3627 1.4913,0.3054 1.3471,-0.8946 l -1.0084,0 c -0.1939,0.2418 -0.4857,0.4824 -0.3387,0.8946 z m 0.7574,8.4432 c 0.1746,0.282 0.4303,0.8151 0.936,0.6405 -0.0425,-0.4227 -0.256,-1.2045 -0.936,-0.8841 l 0,0.2436 z m 1.1853,-9.459 c 0.9702,-0.2121 2.019,0.5262 2.7312,-0.2463 -0.3201,-0.6741 -0.3201,-1.7982 -1.4379,-1.1628 -0.4983,0.3888 -1.6199,0.2133 -1.5426,1.1628 l 0.2493,0.2463 z m 0.107,8.8254 c 0.0727,0.8088 1.0438,0.492 1.5837,0.741 l 0.1098,-0.351 c -0.5072,-0.39 -0.8672,-1.2381 -1.6935,-0.9177 l 0,0.5277 z m 2.8807,-6.144 c -0.6147,-0.4233 -1.6525,-0.2781 -2.3421,-0.1368 0.1794,0.2769 0.2207,0.6012 0.2507,0.9141 0.4389,0.3549 0.9042,1.1289 1.696,0.8841 0.3228,-0.4557 0.4673,-1.0251 0.3954,-1.6614 z m -0.0177,6.4143 -0.1746,-2.2059 c -0.0877,-0.3468 -0.3519,-1.0353 -0.9721,-0.7752 -0.7511,-0.1776 -0.3575,0.7371 -0.443,1.0746 0.6627,0.5637 0.8427,1.7793 1.5897,1.9065 z m -7.0038,-6.5511 -0.5374,0 c -0.7564,0.2769 -2.4146,0.666 -2.4829,1.5462 1.0456,-0.2772 1.9778,-0.8049 3.0203,-1.1598 l 0,-0.3864 z m 12.9951,-2.295 c -1.0062,-0.0351 -1.8732,-1.4871 -2.7357,-0.8841 0.5055,1.4136 1.6179,2.5737 2.0889,3.9522 0.8271,1.8765 2.1764,5.9685 1.6005,8.4048 l -3.8628,0 c -1.2579,-0.3549 -0.3264,-3.6057 -1.6278,-3.8202 -0.357,0.8892 -0.2514,1.9485 -1.2732,3.7971 l -2.0866,0 c 0.1588,-1.3929 -0.0557,-1.4604 -0.1683,-1.5999 -0.7166,-0.0381 -0.6449,1.0902 -1.5464,0.4911 -0.7898,0.1422 -1.0031,-1.1316 -1.8334,-0.8847 -0.283,0.6747 -1.0787,1.5516 -1.9453,1.0269 0.755,-1.6287 4.5358,-2.2983 2.739,-4.9764 -0.3642,-0.7779 -0.0739,-1.9047 -1.0421,-2.2977 -1.6969,0.4599 -3.2766,1.0956 -4.9694,1.5198 0.1811,-0.6357 -0.2882,-1.5198 -0.1101,-2.157 1.8029,-0.2418 2.3432,-2.1153 3.8857,-2.6799 0.3278,-0.2475 0.4707,-0.5274 0.4022,-0.9186 -1.0843,-0.4605 -2.2366,0.4953 -3.2414,0.9186 -0.2537,-0.1032 -0.1152,-0.3537 -0.1471,-0.5274 0.9346,-1.0986 3.9586,-0.6345 2.9863,-2.9268 -0.8277,-1.8753 -0.6455,-4.9806 -3.4873,-5.2326 -0.2563,-0.5625 0.4272,-0.5208 0.6481,-0.7716 2.4422,-0.2478 4.967,2.0859 7.0163,0.1413 0.6819,0 1.5491,0.4296 2.0898,-0.1269 l 6.1371,0 c 1.1568,2.235 0.2627,3.6645 0.372,5.7138 0.1359,0.5196 -1.4359,1.0479 -2.6247,0.7626 -0.2127,0.1437 -0.0732,0.4269 -0.1044,0.6702 0.7893,0.9183 3.9567,-0.4566 3.2367,1.77 0,0.1737 0,0.6003 -0.3966,0.6354"
               id="path15993"
               style="fill:#164079;fill-opacity:1;fill-rule:nonzero;stroke:none"
               inkscape:connector-curvature="0" />
            <path
               d="m 316.6587,63.2829 c -3.8482,0.2472 -5.9113,-0.1479 -5.9631,-0.1332 l 0,-3.0495 0.719,0 c 0.8666,-0.2592 1.4557,-0.2769 2.3261,-0.2769 3.2277,-0.3288 5.9458,0.1443 9.1494,0.3192 -0.3621,0.1071 -0.7274,0.195 -1.0579,0.1737 -0.5437,0.4104 -0.8865,0.6771 -0.7579,1.3278 0.849,0.9051 2.4047,0.1569 3.4008,0.6966 0.8804,-0.3387 0.293,-1.2978 0.5019,-1.8921 -0.087,-0.1674 -0.1838,-0.1533 -0.2863,-0.2454 0.9809,0.0069 2.0256,-0.0243 3.1523,-0.1278 l 0,3.159 c -4.763,0.3057 -8.1239,-0.1371 -11.1843,0.0486"
               id="path15995"
               style="fill:#164079;fill-opacity:1;fill-rule:nonzero;stroke:none"
               inkscape:connector-curvature="0" />
            <path
               d="m 352.4431,56.9409 c -0.6927,-0.1779 -1.5756,-0.3174 -2.2059,0.0987 0.3177,0.7116 1.0848,0.2877 1.6178,0.3963 0.1846,-0.2496 0.5653,0.0342 0.5881,-0.495 z m 2.2854,-7.5072 0,-0.9303 c -1.237,-0.4278 -2.3841,-1.7763 -3.7356,-1.182 l 0,0.8433 c 0.5409,0.2529 1.1682,-0.5079 1.6242,0.6762 0.7407,-0.0885 1.3482,1.0062 2.1114,0.5928 z m -1.0545,12.6846 -0.5839,-0.654 c -0.2285,0 -0.6389,0.6987 -0.7052,0.9804 0.1827,0.2112 1.1961,-0.0801 1.2891,-0.3264 z m 0.0501,-1.512 c 0.288,-0.2115 0.897,-0.2286 0.5817,-1.0218 -0.3601,-0.3228 -0.6294,0.5157 -0.9672,0.6186 l 0.3855,0.4032 z m 0.6912,-8.5866 0,-1.0791 c -0.3468,0.0573 -0.8064,-0.1791 -1.0669,0.18 0.0705,0.8337 0.7201,0.7761 1.0669,0.8991 z m 0.3903,2.8173 -2.0049,0 0,0.7386 2.0049,0 0,-0.7386 z m 1.1274,-9.0732 c -0.4746,-1.1088 -1.3515,-0.3021 -1.9572,0 -0.5002,0.2028 -0.9012,-1.2621 -1.371,-0.2019 -0.0231,0.2547 0.1131,0.3555 0.1584,0.5571 1.1007,0.7575 2.2452,0.1482 3.1698,-0.3552 z m -6.0072,4.398 0,0.3855 1.3734,0 0,-0.3855 -1.3734,0 z m 2.3486,9.0504 c -0.4299,-0.3354 -1.0286,-0.4902 -1.5233,-0.5472 l -0.2994,0.9936 c 0.5684,0.0492 1.6068,0.3306 1.8227,-0.4464 z m -1.6976,1.542 1.0551,0 0,-0.384 -1.0551,0 0,0.384 z m 6.489,-0.8106 0,-1.1901 c -0.5535,0.0645 -1.2222,-0.1818 -1.7037,0.1911 0.2394,0.864 1.1502,0.81 1.7037,0.999 z m -4.3026,4.4073 c 1.5491,-0.3849 3.1776,-0.5694 4.8233,-0.6369 l 0,1.8351 -6.89,0 c -0.008,-1.4529 -1.1109,-3.4887 -1.1109,-3.4887 0.6048,0.006 1.1931,-0.0351 1.7259,-0.2886 l 0,-0.3852 c -0.5628,0.1389 -1.1391,0.2109 -1.7259,0.2451 l 0,-5.961 0.7605,0 c 0.0446,-0.141 0.18,-0.2163 0.15,-0.3885 l -0.15,-0.2847 -0.7605,0 0,-0.7257 c 0.2556,-0.0138 0.5298,-0.0837 0.7605,-0.0171 0.0132,-0.0327 0.0261,-0.0666 0.0495,-0.096 0.3585,-0.0663 0.6111,-0.5409 1.0565,-0.2916 l 0,-0.3837 -0.8013,0 c -0.1547,0 -0.3486,0.0435 -0.4694,0.1869 -0.1875,-0.0747 -0.3906,-0.1065 -0.5958,-0.0771 l 0,-0.5481 c 0.6048,0.2241 1.395,-0.0312 1.9757,-0.0588 0.067,-0.144 0.2019,-0.216 0.157,-0.3924 l -0.157,-0.2793 c -0.6035,0.2193 -1.3476,0.1032 -1.9757,0.1671 l 0,-4.6125 c 0.2169,-0.0408 0.4341,-0.1026 0.6048,-0.1437 0.0639,-0.1752 0.2454,-0.2805 0.2454,-0.4902 -0.2334,-0.141 -0.5415,-0.1749 -0.8502,-0.1143 l 0,-2.5782 8.0009,0 0,2.5782 c -0.3065,-0.0606 -1.0668,-0.0951 -1.3013,0.0429 0,0.2139 0.7977,1.8315 1.0176,1.872 l 0.2837,3.4458 c -0.6293,-0.0639 -1.367,0.0522 -1.9722,-0.1671 l -0.1559,0.2793 c -0.0417,0.1764 0.093,0.2484 0.1559,0.3924 0.5857,0.0276 1.3759,0.2829 1.9722,0.0588 l 0,0.5481 c -0.3293,-0.0408 -0.677,0.0462 -0.9125,0.2739 -0.0237,0.1803 0.1116,0.2496 0.1586,0.3876 0.2296,-0.0666 0.501,0.0033 0.7539,0.0171 l 0,0.7257 -0.7539,0 -0.1586,0.2847 c -0.0237,0.1722 0.1116,0.2475 0.1586,0.3885 l 0.7539,0 0,5.961 c -0.5807,-0.0342 -1.166,-0.1062 -1.7229,-0.2451 l 0,0.3852 c 0.5335,0.2535 1.1266,0.2946 1.7229,0.2886 l 0,1.1739 c -1.4228,0.0786 -2.8352,0.2274 -4.1738,0.3396 -0.3381,0.1803 -0.831,0.1401 -1.0603,0.4953 0.0907,0.2454 0.2524,0.2817 0.4108,0.2817"
               id="path15997"
               style="fill:#164079;fill-opacity:1;fill-rule:nonzero;stroke:none"
               inkscape:connector-curvature="0" />
            <path
               d="m 317.2997,64.254 c 3.3987,0 7.1332,0.3087 10.5797,0.0432 l 0,1.2951 -17.2184,0 c -0.0181,-0.5376 0,-1.3797 0,-1.3797 2.1545,0.3555 4.8329,0.0414 6.6387,0.0414"
               id="path15999"
               style="fill:#164079;fill-opacity:1;fill-rule:nonzero;stroke:none"
               inkscape:connector-curvature="0" />
            <path
               d="m 314.6566,58.0032 c -0.9645,0 -2.0122,0.9414 -2.9784,1.2537 l -0.4822,0 -0.4843,-0.1065 -0.0214,-14.6076 17.2114,0 0,14.7762 c -4.4913,0.5172 -8.4077,-1.6572 -13.2451,-1.3158"
               id="path16001"
               style="fill:#164079;fill-opacity:1;fill-rule:nonzero;stroke:none"
               inkscape:connector-curvature="0" />
            <path
               d="m 377.0002,55.917 c -0.3927,0.036 -1.2789,0.1215 -1.3533,0.6861 -0.0909,0.6153 -0.1258,1.4703 1.2402,1.2201 1.0155,-0.2622 1.4211,-1.6668 0.1131,-1.9062 z m -2.4357,-7.6716 c -0.4285,-0.4818 -0.3078,-2.6409 -1.3447,-1.5216 -1.1054,2.9079 0.3909,4.9098 0.6412,7.4937 0.6447,0.7047 1.3566,0.9648 1.7609,0.7854 0.0994,-0.021 0.6406,-1.3167 0.7309,-1.335 0.1224,-1.779 -0.9558,-1.8669 0.0843,-4.8147 -0.2814,-0.4818 -1.5462,-0.2358 -1.8726,-0.6078 z m -2.5713,9.42 c 0.216,0.2859 0.9741,0.6873 1.3755,0.6183 0.4299,-0.1761 0.7185,-0.9912 0.5403,-1.5567 -0.0385,-0.4575 -0.5403,-0.3501 -0.9021,-0.3501 -0.5053,0.1764 -1.1592,0.6903 -1.0137,1.2885 z m -1.4587,1.1076 c -0.1493,-0.6012 -0.8981,-1.3029 -1.8332,-1.1253 -0.4704,0.3555 -0.3132,1.0293 -0.4219,1.5222 0.1087,0.3525 1.1449,0.6339 1.5802,0.5262 0.1791,-0.246 0.8147,-0.5703 0.6749,-0.9231 z m -2.1113,2.9688 c 0.2139,-0.8502 -0.9531,-1.0014 -1.3927,-1.0482 -0.4877,0.2601 -1.1075,1.2105 -0.782,2.0067 0.3272,0.3246 0.5976,0.7458 1.1958,0.5826 0.3195,-0.5262 1.2477,-0.7935 0.9789,-1.5411 z m -2.3994,-14.1693 0,1.3113 -0.9922,0.9372 -0.4173,1.4061 c -0.4862,2.1489 0.0703,4.644 0.4576,5.4537 -0.0172,-0.015 -0.0208,-0.0198 -0.0372,-0.0261 -0.3612,0.1083 -0.9366,-0.2109 -1.1541,0.2436 0.3261,0.5337 -0.1395,1.3476 0.3992,1.8012 0.3937,0.0735 1.3723,0.054 1.6239,-0.2271 -0.026,-0.4383 -0.0441,-1.0617 -0.4415,-1.5003 0.413,0.0858 0.8667,0.0132 1.1895,-0.3111 -0.1038,-4.1118 0.2931,-6.8916 0.6288,-10.6632 l -1.2567,1.5747 z m -3.9015,13.5777 c -0.6922,0.5916 -1.1193,1.2735 -0.9469,2.2041 0.4342,1.0179 1.8963,0.6789 2.5024,0.2529 0.4644,-0.6795 1.2975,-1.4862 0.0195,-1.8426 0.1272,-1.6407 -1.0653,-1.3821 -1.575,-0.6144 z m 17.2728,-6.7845 c -1.0056,2.4399 1.2882,10.5594 -2.4198,11.2266 -0.4056,0.0582 -0.7473,-0.1122 -1.0686,-0.3795 0.6477,-0.4623 1.1376,-1.1526 1.247,-1.9371 -0.8657,-1.9065 -2.6618,0.4236 -3.8867,-0.2139 l 0,-1.5513 c -0.5074,-0.4218 -0.8673,-0.9879 -1.5826,-0.7749 -0.4353,0.495 -1.0115,0.8454 -0.7973,1.5474 0.4395,0.9189 1.4421,0.5658 2.0907,0.9927 -0.0166,0.0228 -0.0282,0.0444 -0.0399,0.0666 -1.2312,0.3003 -1.0696,2.2197 -3.1503,2.2197 l -3.9732,0 c -1.8456,-0.5682 -4.1163,-1.623 -6.2424,-0.0129 l 0.4014,-2.6196 0.2631,-0.8952 -0.007,-0.7824 0.9366,-0.8151 -0.9744,-0.8322 0.3311,-2.0157 c 0.7348,-0.2184 1.5262,-0.2541 1.5616,-0.9279 -0.1344,-1.0998 -0.9594,-2.361 -0.99,-3.4983 -0.0489,-1.4076 0.7334,-7.2168 0.7113,-8.6199 0.7593,0.069 4.3929,0.2163 5.136,0.594 0.003,-0.0279 1.0116,-0.5643 1.0116,-0.594 1.2903,-0.1248 2.9778,-0.4455 2.5572,1.7937 l -0.9333,5.9532 c -1.1089,3.0483 0.9333,3.8079 1.6161,3.8433 l 0.5369,-0.4896 c -0.1886,-0.6051 -0.2883,-1.1859 -0.3407,-1.7484 0.1352,-0.2271 0.246,-0.4686 0.1734,-0.8499 0.0447,-0.3588 -0.0504,-0.57 -0.1851,-0.7149 0.2144,-2.7633 1.5354,-5.169 1.56,-7.8075 l 3.4799,0.0201 1.2661,0.9858 -0.2652,2.451 0.147,2.3112 -0.0792,4.3032 c 0.5343,-0.1236 1.0607,-0.2736 1.6589,-0.5049 l 0.2497,0.2766"
               id="path16003"
               style="fill:#164079;fill-opacity:1;fill-rule:nonzero;stroke:none"
               inkscape:connector-curvature="0" />
            <path
               d="m 332.0525,78.1089 c -1.6108,0 -2.6643,0.4059 -3.6733,1.4148 l 0.7828,0.783 c 0.8883,-0.8883 1.7162,-1.1742 2.9203,-1.1742 1.5656,0 2.5289,0.7377 2.5289,1.9869 0,0.5568 -0.1652,1.0386 -0.5115,1.3398 -0.3463,0.3009 -0.617,0.3912 -1.3998,0.5118 l -1.2492,0.1956 c -0.8435,0.1353 -1.5059,0.4062 -1.9726,0.813 -0.5417,0.4815 -0.8127,1.1439 -0.8127,2.0019 0,1.8216 1.3099,3.0258 3.4319,3.0258 1.3702,0 2.2734,-0.3462 3.1919,-1.1742 l -0.738,-0.7374 c -0.6621,0.6018 -1.3697,0.918 -2.4987,0.918 -1.4303,0 -2.2582,-0.7977 -2.2582,-1.9869 0,-0.5268 0.1505,-0.9483 0.4816,-1.2345 0.3313,-0.2859 0.8883,-0.4965 1.4455,-0.5871 l 1.1736,-0.1806 c 1.009,-0.1506 1.5062,-0.3612 1.9574,-0.7524 0.5874,-0.4971 0.9032,-1.2348 0.9032,-2.1228 0,-1.8816 -1.4754,-3.0405 -3.7031,-3.0405"
               id="path16005"
               style="fill:#ffffff;fill-opacity:1;fill-rule:nonzero;stroke:none"
               inkscape:connector-curvature="0" />
            <path
               d="m 342.4846,78.1989 0,0.828 c -0.5271,-0.6024 -1.2645,-0.918 -2.0922,-0.918 -0.7983,0 -1.4605,0.2406 -1.9119,0.6921 -0.5268,0.5118 -0.753,1.2195 -0.753,2.0775 l 0,4.7268 1.0841,0 0,-4.5612 c 0,-1.3098 0.6925,-1.9719 1.8067,-1.9719 1.1136,0 1.8512,0.6771 1.8512,1.9719 l 0,4.5612 1.084,0 0,-7.4064 -1.0689,0"
               id="path16007"
               style="fill:#ffffff;fill-opacity:1;fill-rule:nonzero;stroke:none"
               inkscape:connector-curvature="0" />
            <path
               d="m 348.6711,84.7323 c -1.6103,0 -1.8665,-1.3848 -1.8665,-2.8302 0,-1.4448 0.2562,-2.8299 1.8665,-2.8299 1.6111,0 1.8517,1.3851 1.8517,2.8299 0,1.4454 -0.2406,2.8302 -1.8517,2.8302 z m 1.867,-6.5334 0,0.8883 c -0.6024,-0.7827 -1.2948,-0.9783 -2.1075,-0.9783 -0.7527,0 -1.4149,0.2559 -1.8063,0.6471 -0.7531,0.7527 -0.9037,1.9872 -0.9037,3.1461 0,1.1589 0.1506,2.3937 0.9037,3.1461 0.3914,0.3915 1.0536,0.6474 1.8063,0.6474 0.8127,0 1.4901,-0.1806 2.0922,-0.9483 l 0,4.1697 1.0842,0 0,-10.7181 -1.0689,0"
               id="path16009"
               style="fill:#ffffff;fill-opacity:1;fill-rule:nonzero;stroke:none"
               inkscape:connector-curvature="0" />
            <path
               d="m 358.2454,87.8934 -2.7399,0 0,-4.2603 2.7399,0 c 1.34,0 2.2731,0.7227 2.2731,2.1378 0,1.4148 -0.9331,2.1225 -2.2731,2.1225 z m 0.1052,-5.2839 -2.8451,0 0,-4.4106 -1.1439,0 0,10.7181 3.989,0 c 1.9576,0 3.3121,-1.2195 3.3121,-3.1461 0,-1.9269 -1.3545,-3.1614 -3.3121,-3.1614"
               id="path16011"
               style="fill:#ffffff;fill-opacity:1;fill-rule:nonzero;stroke:none"
               inkscape:connector-curvature="0" />
            <path
               d="m 367.6992,81.6162 -2.0774,0 c -1.1142,0 -1.6557,-0.4518 -1.6557,-1.3095 0,-0.8586 0.5268,-1.2648 1.7006,-1.2648 0.6322,0 1.1893,0.0453 1.6561,0.4968 0.2561,0.2409 0.3764,0.6624 0.3764,1.2795 l 0,0.798 z m 0,-3.4173 0,0.7077 c -0.6023,-0.6021 -1.1441,-0.7977 -2.1377,-0.7977 -1.0239,0 -1.6257,0.1956 -2.0925,0.6771 -0.3612,0.3612 -0.5568,0.9183 -0.5568,1.5054 0,1.2945 0.9033,2.1375 2.559,2.1375 l 2.228,0 0,0.7077 c 0,1.0839 -0.5423,1.6257 -1.8968,1.6257 -0.948,0 -1.4301,-0.2259 -1.8666,-0.843 l -0.738,0.6774 c 0.6627,0.858 1.4151,1.0989 2.6196,1.0989 1.9875,0 2.9655,-0.858 2.9655,-2.469 l 0,-5.0277 -1.0837,0"
               id="path16013"
               style="fill:#ffffff;fill-opacity:1;fill-rule:nonzero;stroke:none"
               inkscape:connector-curvature="0" />
            <path
               d="m 375.4059,84.1902 c -0.4061,0.4065 -0.7074,0.5421 -1.2791,0.5421 -1.0836,0 -1.7763,-0.8583 -1.7763,-1.9869 l 0,-4.5465 -1.0842,0 0,7.4064 1.0842,0 0,-0.9033 c 0.4062,0.6171 1.2189,0.9936 2.0774,0.9936 0.7072,0 1.2493,-0.1656 1.7764,-0.6924 l -0.7984,-0.813"
               id="path16015"
               style="fill:#ffffff;fill-opacity:1;fill-rule:nonzero;stroke:none"
               inkscape:connector-curvature="0" />
            <path
               d="m 377.4535,78.1989 0,7.4064 1.0839,0 0,-7.4064 -1.0839,0 z m -0.0603,9.5139 0,1.2192 1.2195,0 0,-1.2192 -1.2195,0"
               id="path16017"
               style="fill:#ffffff;fill-opacity:1;fill-rule:nonzero;stroke:none"
               inkscape:connector-curvature="0" />
            <path
               d="m 383.4445,78.1089 c -1.2496,0 -2.2278,0.2859 -3.0408,1.0686 l 0.7229,0.7224 c 0.5869,-0.6168 1.3849,-0.858 2.3028,-0.858 1.2196,0 1.972,0.4368 1.972,1.3095 0,0.6474 -0.3763,1.0086 -1.2342,1.0839 l -1.2195,0.1053 c -1.4448,0.1206 -2.2128,0.768 -2.2128,1.9872 0,1.3548 1.1442,2.1678 2.7249,2.1678 1.0536,0 2.0022,-0.2559 2.664,-0.798 l -0.7071,-0.7074 c -0.5271,0.4065 -1.2045,0.5871 -1.9722,0.5871 -1.0836,0 -1.656,-0.4668 -1.656,-1.2192 0,-0.6324 0.3615,-1.0086 1.2948,-1.0842 l 1.1892,-0.1053 c 1.2948,-0.1203 2.1828,-0.6171 2.1828,-2.0019 0,-1.4301 -1.2192,-2.2578 -3.0108,-2.2578"
               id="path16019"
               style="fill:#ffffff;fill-opacity:1;fill-rule:nonzero;stroke:none"
               inkscape:connector-curvature="0" />
            <path
               d="m 322.4694,100.6227 -3.1201,0 0,-8.9121 c 0,-0.4017 -0.3311,-0.7089 -0.7096,-0.7089 l -0.3304,0 c -0.402,0 -0.7093,0.3072 -0.7093,0.7089 l 0,8.9121 -3.0967,0 c -0.4019,0 -0.7327,0.2599 -0.7327,0.6616 l 0,0.2601 c 0,0.4019 0.3308,0.6619 0.709,0.6619 l 7.9664,0 c 0.4017,0 0.7324,-0.26 0.7324,-0.6619 l 0,-0.2601 c 0,-0.4017 -0.3307,-0.6616 -0.709,-0.6616"
               id="path16021"
               style="fill:#ffffff;fill-opacity:1;fill-rule:nonzero;stroke:none"
               inkscape:connector-curvature="0" />
            <path
               d="m 332.5628,91.0017 -7.2809,0 c -0.3779,0 -0.6615,0.2835 -0.6615,0.6618 l 0,9.8809 c 0,0.4019 0.3071,0.6619 0.6856,0.6619 l 6.9258,0 c 0.4019,0 0.7095,-0.26 0.7095,-0.6619 l 0,-0.2601 c 0,-0.4017 -0.3076,-0.6616 -0.7095,-0.6616 l -5.8624,0 0,-3.2622 5.3898,0 c 0.4016,0 0.7087,-0.26 0.7087,-0.6621 l 0,-0.2601 c 0,-0.4017 -0.3071,-0.6618 -0.7087,-0.6618 l -5.3898,0 0,-3.1911 6.1934,0 c 0.402,0 0.709,-0.2601 0.709,-0.6618 l 0,-0.2601 c 0,-0.4017 -0.307,-0.6618 -0.709,-0.6618"
               id="path16023"
               style="fill:#ffffff;fill-opacity:1;fill-rule:nonzero;stroke:none"
               inkscape:connector-curvature="0" />
            <path
               d="m 342.4195,91.0017 -7.3512,0 0,10.4953 c 0,0.402 0.307,0.7093 0.709,0.7093 l 0.3307,0 c 0.3782,0 0.7093,-0.3073 0.7093,-0.7093 l 0,-8.9116 5.6022,0 c 0.402,0 0.7098,-0.2601 0.7098,-0.6618 l 0,-0.2601 c 0,-0.4017 -0.3078,-0.6618 -0.7098,-0.6618"
               id="path16025"
               style="fill:#ffffff;fill-opacity:1;fill-rule:nonzero;stroke:none"
               inkscape:connector-curvature="0" />
            <path
               d="m 352.2292,91.0017 -7.2807,0 c -0.378,0 -0.6615,0.2835 -0.6615,0.6618 l 0,9.8809 c 0,0.4019 0.3075,0.6619 0.6852,0.6619 l 6.9261,0 c 0.402,0 0.7092,-0.26 0.7092,-0.6619 l 0,-0.2601 c 0,-0.4017 -0.3072,-0.6616 -0.7092,-0.6616 l -5.862,0 0,-3.2622 5.3895,0 c 0.4013,0 0.7091,-0.26 0.7091,-0.6621 l 0,-0.2601 c 0,-0.4017 -0.3078,-0.6618 -0.7091,-0.6618 l -5.3895,0 0,-3.1911 6.1929,0 c 0.4017,0 0.7092,-0.2601 0.7092,-0.6618 l 0,-0.2601 c 0,-0.4017 -0.3075,-0.6618 -0.7092,-0.6618"
               id="path16027"
               style="fill:#ffffff;fill-opacity:1;fill-rule:nonzero;stroke:none"
               inkscape:connector-curvature="0" />
            <path
               d="m 361.9678,91.0017 -4.6329,0 c -1.4661,0 -2.6004,1.2528 -2.6004,2.6946 l 0,5.8862 c 0,1.4418 1.2294,2.6238 2.6952,2.6238 l 4.2546,0 c 0.4017,0 0.7089,-0.26 0.7089,-0.6619 l 0,-0.2601 c 0,-0.4017 -0.3072,-0.6616 -0.7089,-0.6616 l -3.6405,0 c -1.1347,0 -1.56,-0.662 -1.56,-1.5366 l 0,-5.0352 c 0,-1.1109 0.7092,-1.4655 1.5839,-1.4655 l 3.9001,0 c 0.4016,0 0.7094,-0.2601 0.7094,-0.6618 l 0,-0.2601 c 0,-0.4017 -0.3078,-0.6618 -0.7094,-0.6618"
               id="path16029"
               style="fill:#ffffff;fill-opacity:1;fill-rule:nonzero;stroke:none"
               inkscape:connector-curvature="0" />
            <path
               d="m 371.7061,99.3225 c 0,0.7091 -0.5907,1.3002 -1.3002,1.3002 l -3.0015,0 c -0.7333,0 -1.3002,-0.5911 -1.3002,-1.3002 l 0,-5.4369 c 0,-0.7329 0.5669,-1.3002 1.2762,-1.3002 l 3.0255,0 c 0.7095,0 1.3002,0.5673 1.3002,1.3002 l 0,5.4369 z m -0.8745,-8.3208 -3.8529,0 c -1.4655,0 -2.6235,1.2054 -2.6235,2.6475 l 0,5.9569 c 0,1.4418 1.2522,2.6002 2.718,2.6002 l 3.6639,0 c 1.4658,0 2.7183,-1.1584 2.7183,-2.6002 l 0,-5.9569 c 0,-1.4421 -1.1817,-2.6475 -2.6238,-2.6475"
               id="path16031"
               style="fill:#ffffff;fill-opacity:1;fill-rule:nonzero;stroke:none"
               inkscape:connector-curvature="0" />
            <path
               d="m 385.369,91.0017 -0.3309,0 c -0.3783,0 -0.7089,0.3072 -0.7089,0.7089 l 0,7.4701 -2.3641,-3.3094 c -0.2124,-0.2838 -0.4016,-0.5202 -0.7562,-0.5202 l -0.2367,0 c -0.3543,0 -0.5433,0.2364 -0.756,0.5202 l -2.3637,3.3094 0,-7.4701 c 0,-0.4017 -0.3312,-0.7089 -0.7096,-0.7089 l -0.3311,0 c -0.4017,0 -0.7087,0.3072 -0.7087,0.7089 l 0,9.8338 c 0,0.3782 0.2602,0.6619 0.6619,0.6619 l 0.4254,0 c 0.3072,0 0.567,-0.2837 0.7326,-0.5201 l 3.1677,-4.4675 3.1911,4.4675 c 0.1656,0.2364 0.4017,0.5201 0.7092,0.5201 l 0.4254,0 c 0.402,0 0.6618,-0.2837 0.6618,-0.6619 l 0,-9.8338 c 0,-0.4017 -0.3072,-0.7089 -0.7092,-0.7089"
               id="path16033"
               style="fill:#ffffff;fill-opacity:1;fill-rule:nonzero;stroke:none"
               inkscape:connector-curvature="0" />
          </g>
        </g>
      </g>
    </g>
  </g>
</svg>
